<?xml version="1.0" encoding="UTF-8" standalone="no"?>
<!DOCTYPE svg PUBLIC "-//W3C//DTD SVG 1.1//EN"
 "http://www.w3.org/Graphics/SVG/1.1/DTD/svg11.dtd">
<!-- Generated by graphviz version 2.43.0 (0)
 -->
<!-- Title: G Pages: 1 -->
<svg width="866pt" height="1021pt"
 viewBox="0.00 0.00 866.41 1020.83" xmlns="http://www.w3.org/2000/svg" xmlns:xlink="http://www.w3.org/1999/xlink">
<g id="graph0" class="graph" transform="scale(1 1) rotate(0) translate(4 1016.83)">
<title>G</title><style>.edge>path:hover{stroke-width:8}</style>
<polygon fill="white" stroke="transparent" points="-4,4 -4,-1016.83 862.41,-1016.83 862.41,4 -4,4"/>
<!-- linodenet -->
<g id="node1" class="node">
<title>linodenet</title><style>.edge>path:hover{stroke-width:8}</style>
<ellipse fill="#bd0404" stroke="black" cx="541.72" cy="-994.83" rx="32.93" ry="18"/>
<text text-anchor="middle" x="541.72" y="-992.33" font-family="Helvetica,sans-Serif" font-size="10.00" fill="#ffffff">linodenet</text>
</g>
<!-- linodenet_config -->
<g id="node2" class="node">
<title>linodenet_config</title><style>.edge>path:hover{stroke-width:8}</style>
<ellipse fill="#c82323" stroke="black" cx="41.72" cy="-115.2" rx="41.94" ry="21.43"/>
<text text-anchor="middle" x="41.72" y="-118.2" font-family="Helvetica,sans-Serif" font-size="10.00" fill="#ffffff">linodenet.</text>
<text text-anchor="middle" x="41.72" y="-107.2" font-family="Helvetica,sans-Serif" font-size="10.00" fill="#ffffff">config</text>
</g>
<!-- linodenet_config&#45;&gt;linodenet -->
<g id="edge1" class="edge">
<title>linodenet_config&#45;&gt;linodenet</title><style>.edge>path:hover{stroke-width:8}</style>
<path fill="none" stroke="black" d="M39.01,-136.61C38.24,-147.45 38.37,-160.88 41.72,-172.41"/>
<path fill="none" stroke="black" d="M41.72,-173.41C63.24,-247.47 41.72,-269.81 41.72,-346.94 41.72,-346.94 41.72,-346.94 41.72,-450.7 41.72,-543.89 30.46,-573.03 66.72,-658.88 82.67,-696.66 130.17,-690 124.72,-730.65"/>
<path fill="none" stroke="black" d="M124.72,-732.65C96.87,-907.75 388.29,-970.6 499.58,-988.12"/>
<polygon fill="#c82323" stroke="black" points="499.36,-991.63 509.77,-989.68 500.41,-984.71 499.36,-991.63"/>
</g>
<!-- linodenet_util__util -->
<g id="node24" class="node">
<title>linodenet_util__util</title><style>.edge>path:hover{stroke-width:8}</style>
<ellipse fill="#b83d3d" stroke="black" cx="134.72" cy="-246.18" rx="41.94" ry="28.98"/>
<text text-anchor="middle" x="134.72" y="-254.68" font-family="Helvetica,sans-Serif" font-size="10.00" fill="#ffffff">linodenet.</text>
<text text-anchor="middle" x="134.72" y="-243.68" font-family="Helvetica,sans-Serif" font-size="10.00" fill="#ffffff">util.</text>
<text text-anchor="middle" x="134.72" y="-232.68" font-family="Helvetica,sans-Serif" font-size="10.00" fill="#ffffff">_util</text>
</g>
<!-- linodenet_config&#45;&gt;linodenet_util__util -->
<g id="edge2" class="edge">
<title>linodenet_config&#45;&gt;linodenet_util__util</title><style>.edge>path:hover{stroke-width:8}</style>
<path fill="none" stroke="black" d="M41.72,-173.41C48.61,-197.12 69.79,-214.46 90.19,-226.15"/>
<polygon fill="#c82323" stroke="black" points="88.69,-229.31 99.15,-230.97 92.01,-223.15 88.69,-229.31"/>
</g>
<!-- linodenet_config__config -->
<g id="node3" class="node">
<title>linodenet_config__config</title><style>.edge>path:hover{stroke-width:8}</style>
<ellipse fill="#c24747" stroke="black" cx="41.72" cy="-28.99" rx="41.94" ry="28.98"/>
<text text-anchor="middle" x="41.72" y="-37.49" font-family="Helvetica,sans-Serif" font-size="10.00" fill="#ffffff">linodenet.</text>
<text text-anchor="middle" x="41.72" y="-26.49" font-family="Helvetica,sans-Serif" font-size="10.00" fill="#ffffff">config.</text>
<text text-anchor="middle" x="41.72" y="-15.49" font-family="Helvetica,sans-Serif" font-size="10.00" fill="#ffffff">_config</text>
</g>
<!-- linodenet_config__config&#45;&gt;linodenet_config -->
<g id="edge3" class="edge">
<title>linodenet_config__config&#45;&gt;linodenet_config</title><style>.edge>path:hover{stroke-width:8}</style>
<path fill="none" stroke="black" d="M41.72,-58.03C41.72,-66.24 41.72,-75.25 41.72,-83.61"/>
<polygon fill="#c24747" stroke="black" points="38.22,-83.74 41.72,-93.74 45.22,-83.74 38.22,-83.74"/>
</g>
<!-- linodenet_embeddings -->
<g id="node4" class="node">
<title>linodenet_embeddings</title><style>.edge>path:hover{stroke-width:8}</style>
<ellipse fill="#c82323" stroke="black" cx="124.72" cy="-637.67" rx="48.58" ry="21.43"/>
<text text-anchor="middle" x="124.72" y="-640.67" font-family="Helvetica,sans-Serif" font-size="10.00" fill="#ffffff">linodenet.</text>
<text text-anchor="middle" x="124.72" y="-629.67" font-family="Helvetica,sans-Serif" font-size="10.00" fill="#ffffff">embeddings</text>
</g>
<!-- linodenet_embeddings&#45;&gt;linodenet -->
<g id="edge4" class="edge">
<title>linodenet_embeddings&#45;&gt;linodenet</title><style>.edge>path:hover{stroke-width:8}</style>
<path fill="none" stroke="black" d="M126.28,-659.23C127.32,-677.94 127.99,-706.27 124.72,-730.65"/>
</g>
<!-- linodenet_models__linodenet -->
<g id="node14" class="node">
<title>linodenet_models__linodenet</title><style>.edge>path:hover{stroke-width:8}</style>
<ellipse fill="#822b2b" stroke="black" cx="506.72" cy="-833.41" rx="43.27" ry="28.98"/>
<text text-anchor="middle" x="506.72" y="-841.91" font-family="Helvetica,sans-Serif" font-size="10.00" fill="#ffffff">linodenet.</text>
<text text-anchor="middle" x="506.72" y="-830.91" font-family="Helvetica,sans-Serif" font-size="10.00" fill="#ffffff">models.</text>
<text text-anchor="middle" x="506.72" y="-819.91" font-family="Helvetica,sans-Serif" font-size="10.00" fill="#ffffff">_linodenet</text>
</g>
<!-- linodenet_embeddings&#45;&gt;linodenet_models__linodenet -->
<g id="edge5" class="edge">
<title>linodenet_embeddings&#45;&gt;linodenet_models__linodenet</title><style>.edge>path:hover{stroke-width:8}</style>
<path fill="none" stroke="black" d="M155.33,-654.19C223.13,-688.58 386.07,-771.22 463.91,-810.7"/>
<polygon fill="#c82323" stroke="black" points="462.47,-813.89 472.97,-815.29 465.64,-807.65 462.47,-813.89"/>
</g>
<!-- linodenet_embeddings__embeddings -->
<g id="node5" class="node">
<title>linodenet_embeddings__embeddings</title><style>.edge>path:hover{stroke-width:8}</style>
<ellipse fill="#b83d3d" stroke="black" cx="121.72" cy="-551.46" rx="52.15" ry="28.98"/>
<text text-anchor="middle" x="121.72" y="-559.96" font-family="Helvetica,sans-Serif" font-size="10.00" fill="#ffffff">linodenet.</text>
<text text-anchor="middle" x="121.72" y="-548.96" font-family="Helvetica,sans-Serif" font-size="10.00" fill="#ffffff">embeddings.</text>
<text text-anchor="middle" x="121.72" y="-537.96" font-family="Helvetica,sans-Serif" font-size="10.00" fill="#ffffff">_embeddings</text>
</g>
<!-- linodenet_embeddings__embeddings&#45;&gt;linodenet_embeddings -->
<g id="edge6" class="edge">
<title>linodenet_embeddings__embeddings&#45;&gt;linodenet_embeddings</title><style>.edge>path:hover{stroke-width:8}</style>
<path fill="none" stroke="black" d="M122.72,-580.5C123.01,-588.71 123.33,-597.72 123.63,-606.08"/>
<polygon fill="#b83d3d" stroke="black" points="120.14,-606.34 123.99,-616.21 127.13,-606.09 120.14,-606.34"/>
</g>
<!-- linodenet_filters -->
<g id="node6" class="node">
<title>linodenet_filters</title><style>.edge>path:hover{stroke-width:8}</style>
<ellipse fill="#bc2f2f" stroke="black" cx="521.72" cy="-637.67" rx="41.94" ry="21.43"/>
<text text-anchor="middle" x="521.72" y="-640.67" font-family="Helvetica,sans-Serif" font-size="10.00" fill="#ffffff">linodenet.</text>
<text text-anchor="middle" x="521.72" y="-629.67" font-family="Helvetica,sans-Serif" font-size="10.00" fill="#ffffff">filters</text>
</g>
<!-- linodenet_filters&#45;&gt;linodenet_models__linodenet -->
<g id="edge7" class="edge">
<title>linodenet_filters&#45;&gt;linodenet_models__linodenet</title><style>.edge>path:hover{stroke-width:8}</style>
<path fill="none" stroke="black" d="M516.45,-658.99C512.41,-677.79 508.34,-706.39 513.72,-730.65"/>
</g>
<!-- linodenet_filters__filters -->
<g id="node7" class="node">
<title>linodenet_filters__filters</title><style>.edge>path:hover{stroke-width:8}</style>
<ellipse fill="#b83d3d" stroke="black" cx="521.72" cy="-551.46" rx="41.94" ry="28.98"/>
<text text-anchor="middle" x="521.72" y="-559.96" font-family="Helvetica,sans-Serif" font-size="10.00" fill="#ffffff">linodenet.</text>
<text text-anchor="middle" x="521.72" y="-548.96" font-family="Helvetica,sans-Serif" font-size="10.00" fill="#ffffff">filters.</text>
<text text-anchor="middle" x="521.72" y="-537.96" font-family="Helvetica,sans-Serif" font-size="10.00" fill="#ffffff">_filters</text>
</g>
<!-- linodenet_filters__filters&#45;&gt;linodenet_filters -->
<g id="edge8" class="edge">
<title>linodenet_filters__filters&#45;&gt;linodenet_filters</title><style>.edge>path:hover{stroke-width:8}</style>
<path fill="none" stroke="black" d="M521.72,-580.5C521.72,-588.71 521.72,-597.72 521.72,-606.08"/>
<polygon fill="#b83d3d" stroke="black" points="518.22,-606.21 521.72,-616.21 525.22,-606.21 518.22,-606.21"/>
</g>
<!-- linodenet_initializations -->
<g id="node8" class="node">
<title>linodenet_initializations</title><style>.edge>path:hover{stroke-width:8}</style>
<ellipse fill="#ca1616" stroke="black" cx="281.72" cy="-637.67" rx="51.74" ry="21.43"/>
<text text-anchor="middle" x="281.72" y="-640.67" font-family="Helvetica,sans-Serif" font-size="10.00" fill="#ffffff">linodenet.</text>
<text text-anchor="middle" x="281.72" y="-629.67" font-family="Helvetica,sans-Serif" font-size="10.00" fill="#ffffff">initializations</text>
</g>
<!-- linodenet_initializations&#45;&gt;linodenet -->
<g id="edge9" class="edge">
<title>linodenet_initializations&#45;&gt;linodenet</title><style>.edge>path:hover{stroke-width:8}</style>
<path fill="none" stroke="black" d="M234.88,-646.64C191.09,-657.15 131.44,-680.55 124.72,-730.65"/>
</g>
<!-- linodenet_initializations&#45;&gt;linodenet_models__linodenet -->
<g id="edge10" class="edge">
<title>linodenet_initializations&#45;&gt;linodenet_models__linodenet</title><style>.edge>path:hover{stroke-width:8}</style>
<path fill="none" stroke="black" d="M331.88,-643.25C375.89,-649.3 439.99,-663.19 486.72,-694.88 503.2,-706.06 509.4,-711.2 513.72,-730.65"/>
<path fill="none" stroke="black" d="M513.72,-732.65C518.19,-752.81 517,-775.78 514.44,-794.59"/>
<polygon fill="#ca1616" stroke="black" points="510.96,-794.15 512.9,-804.57 517.88,-795.22 510.96,-794.15"/>
</g>
<!-- linodenet_initializations_functional -->
<g id="node9" class="node">
<title>linodenet_initializations_functional</title><style>.edge>path:hover{stroke-width:8}</style>
<ellipse fill="#bf2121" stroke="black" cx="408.72" cy="-551.46" rx="53.98" ry="28.98"/>
<text text-anchor="middle" x="408.72" y="-559.96" font-family="Helvetica,sans-Serif" font-size="10.00" fill="#ffffff">linodenet.</text>
<text text-anchor="middle" x="408.72" y="-548.96" font-family="Helvetica,sans-Serif" font-size="10.00" fill="#ffffff">initializations.</text>
<text text-anchor="middle" x="408.72" y="-537.96" font-family="Helvetica,sans-Serif" font-size="10.00" fill="#ffffff">functional</text>
</g>
<!-- linodenet_initializations_functional&#45;&gt;linodenet_initializations -->
<g id="edge11" class="edge">
<title>linodenet_initializations_functional&#45;&gt;linodenet_initializations</title><style>.edge>path:hover{stroke-width:8}</style>
<path fill="none" stroke="black" d="M375.68,-574.37C357.54,-586.4 335.04,-601.31 316.61,-613.53"/>
<polygon fill="#bf2121" stroke="black" points="314.59,-610.67 308.19,-619.11 318.46,-616.5 314.59,-610.67"/>
</g>
<!-- linodenet_initializations_functional&#45;&gt;linodenet_models__linodenet -->
<g id="edge12" class="edge">
<title>linodenet_initializations_functional&#45;&gt;linodenet_models__linodenet</title><style>.edge>path:hover{stroke-width:8}</style>
<path fill="none" stroke="black" d="M424.43,-579.63C436.91,-601.17 454.84,-632 470.72,-658.88 489.63,-690.89 505.66,-694.35 513.72,-730.65"/>
</g>
<!-- linodenet_initializations_functional__functional -->
<g id="node10" class="node">
<title>linodenet_initializations_functional__functional</title><style>.edge>path:hover{stroke-width:8}</style>
<ellipse fill="#c24747" stroke="black" cx="408.72" cy="-449.7" rx="53.98" ry="36.54"/>
<text text-anchor="middle" x="408.72" y="-463.7" font-family="Helvetica,sans-Serif" font-size="10.00" fill="#ffffff">linodenet.</text>
<text text-anchor="middle" x="408.72" y="-452.7" font-family="Helvetica,sans-Serif" font-size="10.00" fill="#ffffff">initializations.</text>
<text text-anchor="middle" x="408.72" y="-441.7" font-family="Helvetica,sans-Serif" font-size="10.00" fill="#ffffff">functional.</text>
<text text-anchor="middle" x="408.72" y="-430.7" font-family="Helvetica,sans-Serif" font-size="10.00" fill="#ffffff">_functional</text>
</g>
<!-- linodenet_initializations_functional__functional&#45;&gt;linodenet_initializations_functional -->
<g id="edge13" class="edge">
<title>linodenet_initializations_functional__functional&#45;&gt;linodenet_initializations_functional</title><style>.edge>path:hover{stroke-width:8}</style>
<path fill="none" stroke="black" d="M408.72,-486.72C408.72,-494.96 408.72,-503.75 408.72,-512.08"/>
<polygon fill="#c24747" stroke="black" points="405.22,-512.32 408.72,-522.32 412.22,-512.32 405.22,-512.32"/>
</g>
<!-- linodenet_initializations_modular -->
<g id="node11" class="node">
<title>linodenet_initializations_modular</title><style>.edge>path:hover{stroke-width:8}</style>
<ellipse fill="#c24747" stroke="black" cx="283.72" cy="-551.46" rx="53.98" ry="28.98"/>
<text text-anchor="middle" x="283.72" y="-559.96" font-family="Helvetica,sans-Serif" font-size="10.00" fill="#ffffff">linodenet.</text>
<text text-anchor="middle" x="283.72" y="-548.96" font-family="Helvetica,sans-Serif" font-size="10.00" fill="#ffffff">initializations.</text>
<text text-anchor="middle" x="283.72" y="-537.96" font-family="Helvetica,sans-Serif" font-size="10.00" fill="#ffffff">modular</text>
</g>
<!-- linodenet_initializations_modular&#45;&gt;linodenet_initializations -->
<g id="edge14" class="edge">
<title>linodenet_initializations_modular&#45;&gt;linodenet_initializations</title><style>.edge>path:hover{stroke-width:8}</style>
<path fill="none" stroke="black" d="M283.05,-580.5C282.86,-588.71 282.64,-597.72 282.45,-606.08"/>
<polygon fill="#c24747" stroke="black" points="278.94,-606.12 282.21,-616.21 285.94,-606.29 278.94,-606.12"/>
</g>
<!-- linodenet_models -->
<g id="node12" class="node">
<title>linodenet_models</title><style>.edge>path:hover{stroke-width:8}</style>
<ellipse fill="#bf2121" stroke="black" cx="506.72" cy="-919.61" rx="41.94" ry="21.43"/>
<text text-anchor="middle" x="506.72" y="-922.61" font-family="Helvetica,sans-Serif" font-size="10.00" fill="#ffffff">linodenet.</text>
<text text-anchor="middle" x="506.72" y="-911.61" font-family="Helvetica,sans-Serif" font-size="10.00" fill="#ffffff">models</text>
</g>
<!-- linodenet_models&#45;&gt;linodenet -->
<g id="edge15" class="edge">
<title>linodenet_models&#45;&gt;linodenet</title><style>.edge>path:hover{stroke-width:8}</style>
<path fill="none" stroke="black" d="M516.28,-940.62C520.33,-949.08 525.09,-959.03 529.39,-968.03"/>
<polygon fill="#bf2121" stroke="black" points="526.35,-969.79 533.82,-977.31 532.67,-966.77 526.35,-969.79"/>
</g>
<!-- linodenet_models__iresnet -->
<g id="node13" class="node">
<title>linodenet_models__iresnet</title><style>.edge>path:hover{stroke-width:8}</style>
<ellipse fill="#c43131" stroke="black" cx="435.72" cy="-731.65" rx="41.94" ry="28.98"/>
<text text-anchor="middle" x="435.72" y="-740.15" font-family="Helvetica,sans-Serif" font-size="10.00" fill="#ffffff">linodenet.</text>
<text text-anchor="middle" x="435.72" y="-729.15" font-family="Helvetica,sans-Serif" font-size="10.00" fill="#ffffff">models.</text>
<text text-anchor="middle" x="435.72" y="-718.15" font-family="Helvetica,sans-Serif" font-size="10.00" fill="#ffffff">_iresnet</text>
</g>
<!-- linodenet_models__iresnet&#45;&gt;linodenet_models -->
<g id="edge16" class="edge">
<title>linodenet_models__iresnet&#45;&gt;linodenet_models</title><style>.edge>path:hover{stroke-width:8}</style>
<path fill="none" stroke="black" d="M435.12,-760.87C435.6,-788.13 439.2,-829.95 454.72,-862.4 460.32,-874.11 469.21,-885.07 478.07,-894.14"/>
<polygon fill="#c43131" stroke="black" points="475.82,-896.84 485.44,-901.3 480.7,-891.82 475.82,-896.84"/>
</g>
<!-- linodenet_models__iresnet&#45;&gt;linodenet_models__linodenet -->
<g id="edge17" class="edge">
<title>linodenet_models__iresnet&#45;&gt;linodenet_models__linodenet</title><style>.edge>path:hover{stroke-width:8}</style>
<path fill="none" stroke="black" d="M453.82,-758.08C462.58,-770.39 473.22,-785.35 482.66,-798.6"/>
<polygon fill="#c43131" stroke="black" points="480,-800.91 488.65,-807.02 485.71,-796.85 480,-800.91"/>
</g>
<!-- linodenet_models__linodenet&#45;&gt;linodenet_models -->
<g id="edge18" class="edge">
<title>linodenet_models__linodenet&#45;&gt;linodenet_models</title><style>.edge>path:hover{stroke-width:8}</style>
<path fill="none" stroke="black" d="M506.72,-862.45C506.72,-870.66 506.72,-879.67 506.72,-888.03"/>
<polygon fill="#822b2b" stroke="black" points="503.22,-888.15 506.72,-898.15 510.22,-888.15 503.22,-888.15"/>
</g>
<!-- linodenet_projections -->
<g id="node15" class="node">
<title>linodenet_projections</title><style>.edge>path:hover{stroke-width:8}</style>
<ellipse fill="#d60b0b" stroke="black" cx="664.72" cy="-449.7" rx="45.01" ry="21.43"/>
<text text-anchor="middle" x="664.72" y="-452.7" font-family="Helvetica,sans-Serif" font-size="10.00" fill="#ffffff">linodenet.</text>
<text text-anchor="middle" x="664.72" y="-441.7" font-family="Helvetica,sans-Serif" font-size="10.00" fill="#ffffff">projections</text>
</g>
<!-- linodenet_projections&#45;&gt;linodenet -->
<g id="edge19" class="edge">
<title>linodenet_projections&#45;&gt;linodenet</title><style>.edge>path:hover{stroke-width:8}</style>
<path fill="none" stroke="black" d="M577.72,-732.65C553.78,-772.48 566.7,-895.23 557.72,-940.83 556,-949.54 553.44,-958.87 550.87,-967.24"/>
<polygon fill="#d60b0b" stroke="black" points="547.5,-966.27 547.78,-976.86 554.17,-968.41 547.5,-966.27"/>
</g>
<!-- linodenet_projections&#45;&gt;linodenet_models__linodenet -->
<g id="edge20" class="edge">
<title>linodenet_projections&#45;&gt;linodenet_models__linodenet</title><style>.edge>path:hover{stroke-width:8}</style>
<path fill="none" stroke="black" d="M667.55,-471.1C671.72,-505.65 677.7,-577.7 664.72,-636.67"/>
<path fill="none" stroke="black" d="M664.72,-638.67C654.74,-676.59 621.5,-664.49 596.72,-694.88 585.34,-708.83 586.99,-715.22 577.72,-730.65"/>
<path fill="none" stroke="black" d="M577.72,-732.65C563.89,-755.66 546.42,-780.25 532.27,-799.26"/>
<polygon fill="#d60b0b" stroke="black" points="529.43,-797.21 526.23,-807.31 535.03,-801.41 529.43,-797.21"/>
</g>
<!-- linodenet_regularizations_functional__functional -->
<g id="node21" class="node">
<title>linodenet_regularizations_functional__functional</title><style>.edge>path:hover{stroke-width:8}</style>
<ellipse fill="#b03a3a" stroke="black" cx="664.72" cy="-731.65" rx="58.88" ry="36.54"/>
<text text-anchor="middle" x="664.72" y="-745.65" font-family="Helvetica,sans-Serif" font-size="10.00" fill="#ffffff">linodenet.</text>
<text text-anchor="middle" x="664.72" y="-734.65" font-family="Helvetica,sans-Serif" font-size="10.00" fill="#ffffff">regularizations.</text>
<text text-anchor="middle" x="664.72" y="-723.65" font-family="Helvetica,sans-Serif" font-size="10.00" fill="#ffffff">functional.</text>
<text text-anchor="middle" x="664.72" y="-712.65" font-family="Helvetica,sans-Serif" font-size="10.00" fill="#ffffff">_functional</text>
</g>
<!-- linodenet_projections&#45;&gt;linodenet_regularizations_functional__functional -->
<g id="edge21" class="edge">
<title>linodenet_projections&#45;&gt;linodenet_regularizations_functional__functional</title><style>.edge>path:hover{stroke-width:8}</style>
<path fill="none" stroke="black" d="M664.72,-638.67C661.45,-653.49 660.61,-669.99 660.85,-684.88"/>
<polygon fill="#d60b0b" stroke="black" points="657.35,-685 661.17,-694.88 664.35,-684.78 657.35,-685"/>
</g>
<!-- linodenet_projections_functional -->
<g id="node16" class="node">
<title>linodenet_projections_functional</title><style>.edge>path:hover{stroke-width:8}</style>
<ellipse fill="#bf2121" stroke="black" cx="737.72" cy="-347.94" rx="47.25" ry="28.98"/>
<text text-anchor="middle" x="737.72" y="-356.44" font-family="Helvetica,sans-Serif" font-size="10.00" fill="#ffffff">linodenet.</text>
<text text-anchor="middle" x="737.72" y="-345.44" font-family="Helvetica,sans-Serif" font-size="10.00" fill="#ffffff">projections.</text>
<text text-anchor="middle" x="737.72" y="-334.44" font-family="Helvetica,sans-Serif" font-size="10.00" fill="#ffffff">functional</text>
</g>
<!-- linodenet_projections_functional&#45;&gt;linodenet_projections -->
<g id="edge22" class="edge">
<title>linodenet_projections_functional&#45;&gt;linodenet_projections</title><style>.edge>path:hover{stroke-width:8}</style>
<path fill="none" stroke="black" d="M718.92,-374.63C708.47,-388.92 695.46,-406.69 684.81,-421.25"/>
<polygon fill="#bf2121" stroke="black" points="681.92,-419.26 678.84,-429.4 687.57,-423.4 681.92,-419.26"/>
</g>
<!-- linodenet_projections_functional&#45;&gt;linodenet_regularizations_functional__functional -->
<g id="edge23" class="edge">
<title>linodenet_projections_functional&#45;&gt;linodenet_regularizations_functional__functional</title><style>.edge>path:hover{stroke-width:8}</style>
<path fill="none" stroke="black" d="M734.52,-376.96C731.18,-404.83 725.48,-448.75 718.72,-486.47 706.2,-556.29 687.66,-636.44 675.89,-685.31"/>
<polygon fill="#bf2121" stroke="black" points="672.44,-684.7 673.49,-695.24 679.24,-686.35 672.44,-684.7"/>
</g>
<!-- linodenet_projections_functional__functional -->
<g id="node17" class="node">
<title>linodenet_projections_functional__functional</title><style>.edge>path:hover{stroke-width:8}</style>
<ellipse fill="#c24747" stroke="black" cx="737.72" cy="-246.18" rx="47.25" ry="36.54"/>
<text text-anchor="middle" x="737.72" y="-260.18" font-family="Helvetica,sans-Serif" font-size="10.00" fill="#ffffff">linodenet.</text>
<text text-anchor="middle" x="737.72" y="-249.18" font-family="Helvetica,sans-Serif" font-size="10.00" fill="#ffffff">projections.</text>
<text text-anchor="middle" x="737.72" y="-238.18" font-family="Helvetica,sans-Serif" font-size="10.00" fill="#ffffff">functional.</text>
<text text-anchor="middle" x="737.72" y="-227.18" font-family="Helvetica,sans-Serif" font-size="10.00" fill="#ffffff">_functional</text>
</g>
<!-- linodenet_projections_functional__functional&#45;&gt;linodenet_projections_functional -->
<g id="edge24" class="edge">
<title>linodenet_projections_functional__functional&#45;&gt;linodenet_projections_functional</title><style>.edge>path:hover{stroke-width:8}</style>
<path fill="none" stroke="black" d="M737.72,-283.19C737.72,-291.44 737.72,-300.22 737.72,-308.56"/>
<polygon fill="#c24747" stroke="black" points="734.22,-308.8 737.72,-318.8 741.22,-308.8 734.22,-308.8"/>
</g>
<!-- linodenet_projections_modular -->
<g id="node18" class="node">
<title>linodenet_projections_modular</title><style>.edge>path:hover{stroke-width:8}</style>
<ellipse fill="#c24747" stroke="black" cx="624.72" cy="-347.94" rx="47.25" ry="28.98"/>
<text text-anchor="middle" x="624.72" y="-356.44" font-family="Helvetica,sans-Serif" font-size="10.00" fill="#ffffff">linodenet.</text>
<text text-anchor="middle" x="624.72" y="-345.44" font-family="Helvetica,sans-Serif" font-size="10.00" fill="#ffffff">projections.</text>
<text text-anchor="middle" x="624.72" y="-334.44" font-family="Helvetica,sans-Serif" font-size="10.00" fill="#ffffff">modular</text>
</g>
<!-- linodenet_projections_modular&#45;&gt;linodenet_projections -->
<g id="edge25" class="edge">
<title>linodenet_projections_modular&#45;&gt;linodenet_projections</title><style>.edge>path:hover{stroke-width:8}</style>
<path fill="none" stroke="black" d="M635.65,-376.2C641.01,-389.57 647.47,-405.69 652.94,-419.33"/>
<polygon fill="#c24747" stroke="black" points="649.75,-420.77 656.72,-428.75 656.25,-418.17 649.75,-420.77"/>
</g>
<!-- linodenet_regularizations -->
<g id="node19" class="node">
<title>linodenet_regularizations</title><style>.edge>path:hover{stroke-width:8}</style>
<ellipse fill="#bf2121" stroke="black" cx="664.72" cy="-919.61" rx="56.64" ry="21.43"/>
<text text-anchor="middle" x="664.72" y="-922.61" font-family="Helvetica,sans-Serif" font-size="10.00" fill="#ffffff">linodenet.</text>
<text text-anchor="middle" x="664.72" y="-911.61" font-family="Helvetica,sans-Serif" font-size="10.00" fill="#ffffff">regularizations</text>
</g>
<!-- linodenet_regularizations&#45;&gt;linodenet -->
<g id="edge26" class="edge">
<title>linodenet_regularizations&#45;&gt;linodenet</title><style>.edge>path:hover{stroke-width:8}</style>
<path fill="none" stroke="black" d="M635.57,-937.96C616.44,-949.35 591.46,-964.22 572.09,-975.75"/>
<polygon fill="#bf2121" stroke="black" points="570.15,-972.83 563.35,-980.95 573.73,-978.85 570.15,-972.83"/>
</g>
<!-- linodenet_regularizations_functional -->
<g id="node20" class="node">
<title>linodenet_regularizations_functional</title><style>.edge>path:hover{stroke-width:8}</style>
<ellipse fill="#b42d2d" stroke="black" cx="664.72" cy="-833.41" rx="58.88" ry="28.98"/>
<text text-anchor="middle" x="664.72" y="-841.91" font-family="Helvetica,sans-Serif" font-size="10.00" fill="#ffffff">linodenet.</text>
<text text-anchor="middle" x="664.72" y="-830.91" font-family="Helvetica,sans-Serif" font-size="10.00" fill="#ffffff">regularizations.</text>
<text text-anchor="middle" x="664.72" y="-819.91" font-family="Helvetica,sans-Serif" font-size="10.00" fill="#ffffff">functional</text>
</g>
<!-- linodenet_regularizations_functional&#45;&gt;linodenet_regularizations -->
<g id="edge27" class="edge">
<title>linodenet_regularizations_functional&#45;&gt;linodenet_regularizations</title><style>.edge>path:hover{stroke-width:8}</style>
<path fill="none" stroke="black" d="M664.72,-862.45C664.72,-870.66 664.72,-879.67 664.72,-888.03"/>
<polygon fill="#b42d2d" stroke="black" points="661.22,-888.15 664.72,-898.15 668.22,-888.15 661.22,-888.15"/>
</g>
<!-- linodenet_regularizations_functional__functional&#45;&gt;linodenet_regularizations_functional -->
<g id="edge28" class="edge">
<title>linodenet_regularizations_functional__functional&#45;&gt;linodenet_regularizations_functional</title><style>.edge>path:hover{stroke-width:8}</style>
<path fill="none" stroke="black" d="M664.72,-768.66C664.72,-776.91 664.72,-785.7 664.72,-794.03"/>
<polygon fill="#b03a3a" stroke="black" points="661.22,-794.27 664.72,-804.27 668.22,-794.27 661.22,-794.27"/>
</g>
<!-- linodenet_regularizations_modular -->
<g id="node22" class="node">
<title>linodenet_regularizations_modular</title><style>.edge>path:hover{stroke-width:8}</style>
<ellipse fill="#c24747" stroke="black" cx="799.72" cy="-833.41" rx="58.88" ry="28.98"/>
<text text-anchor="middle" x="799.72" y="-841.91" font-family="Helvetica,sans-Serif" font-size="10.00" fill="#ffffff">linodenet.</text>
<text text-anchor="middle" x="799.72" y="-830.91" font-family="Helvetica,sans-Serif" font-size="10.00" fill="#ffffff">regularizations.</text>
<text text-anchor="middle" x="799.72" y="-819.91" font-family="Helvetica,sans-Serif" font-size="10.00" fill="#ffffff">modular</text>
</g>
<!-- linodenet_regularizations_modular&#45;&gt;linodenet_regularizations -->
<g id="edge29" class="edge">
<title>linodenet_regularizations_modular&#45;&gt;linodenet_regularizations</title><style>.edge>path:hover{stroke-width:8}</style>
<path fill="none" stroke="black" d="M764.25,-856.53C744.87,-868.62 720.92,-883.56 701.36,-895.76"/>
<polygon fill="#c24747" stroke="black" points="699.35,-892.89 692.72,-901.15 703.05,-898.83 699.35,-892.89"/>
</g>
<!-- linodenet_util -->
<g id="node23" class="node">
<title>linodenet_util</title><style>.edge>path:hover{stroke-width:8}</style>
<ellipse fill="#df0b0b" stroke="black" cx="179.72" cy="-347.94" rx="41.59" ry="18"/>
<text text-anchor="middle" x="179.72" y="-345.44" font-family="Helvetica,sans-Serif" font-size="10.00" fill="#ffffff">linodenet.util</text>
</g>
<!-- linodenet_util&#45;&gt;linodenet_embeddings__embeddings -->
<g id="edge30" class="edge">
<title>linodenet_util&#45;&gt;linodenet_embeddings__embeddings</title><style>.edge>path:hover{stroke-width:8}</style>
<path fill="none" stroke="black" d="M186.71,-366.02C194.02,-385.72 204.11,-419.18 201.72,-448.7"/>
<path fill="none" stroke="black" d="M201.72,-450.7C199.46,-478.64 179.97,-503.28 160.8,-521.08"/>
<polygon fill="#df0b0b" stroke="black" points="158.38,-518.55 153.22,-527.81 163.03,-523.79 158.38,-518.55"/>
</g>
<!-- linodenet_util&#45;&gt;linodenet_filters__filters -->
<g id="edge31" class="edge">
<title>linodenet_util&#45;&gt;linodenet_filters__filters</title><style>.edge>path:hover{stroke-width:8}</style>
<path fill="none" stroke="black" d="M220.79,-351.56C317.86,-358.81 555.99,-383.1 591.72,-448.7"/>
<path fill="none" stroke="black" d="M591.72,-450.7C606.08,-477.08 582.99,-504.88 559.57,-524.41"/>
<polygon fill="#df0b0b" stroke="black" points="557.31,-521.74 551.67,-530.7 561.67,-527.21 557.31,-521.74"/>
</g>
<!-- linodenet_util&#45;&gt;linodenet_models__iresnet -->
<g id="edge32" class="edge">
<title>linodenet_util&#45;&gt;linodenet_models__iresnet</title><style>.edge>path:hover{stroke-width:8}</style>
<path fill="none" stroke="black" d="M201.72,-450.7C194.22,-543.31 163.04,-586.05 220.72,-658.88 226.1,-665.67 325.92,-697.11 387.63,-716.05"/>
<polygon fill="#df0b0b" stroke="black" points="386.97,-719.51 397.56,-719.09 389.02,-712.82 386.97,-719.51"/>
</g>
<!-- linodenet_util&#45;&gt;linodenet_models__linodenet -->
<g id="edge33" class="edge">
<title>linodenet_util&#45;&gt;linodenet_models__linodenet</title><style>.edge>path:hover{stroke-width:8}</style>
<path fill="none" stroke="black" d="M591.72,-450.7C636.16,-532.29 608,-572.93 572.72,-658.88 557.04,-697.08 505.11,-690.26 513.72,-730.65"/>
</g>
<!-- linodenet_util__util&#45;&gt;linodenet_util -->
<g id="edge34" class="edge">
<title>linodenet_util__util&#45;&gt;linodenet_util</title><style>.edge>path:hover{stroke-width:8}</style>
<path fill="none" stroke="black" d="M146.9,-274.18C153.41,-288.62 161.4,-306.32 167.86,-320.65"/>
<polygon fill="#b83d3d" stroke="black" points="164.76,-322.28 172.06,-329.95 171.14,-319.4 164.76,-322.28"/>
</g>
</g>
</svg>
