<?xml version="1.0" encoding="UTF-8" standalone="no"?>
<!DOCTYPE svg PUBLIC "-//W3C//DTD SVG 1.1//EN"
 "http://www.w3.org/Graphics/SVG/1.1/DTD/svg11.dtd">
<!-- Generated by graphviz version 2.43.0 (0)
 -->
<!-- Title: G Pages: 1 -->
<svg width="1081pt" height="1152pt"
 viewBox="0.00 0.00 1080.69 1151.81" xmlns="http://www.w3.org/2000/svg" xmlns:xlink="http://www.w3.org/1999/xlink">
<g id="graph0" class="graph" transform="scale(1 1) rotate(0) translate(4 1147.81)">
<title>G</title><style>.edge>path:hover{stroke-width:8}</style>
<polygon fill="white" stroke="transparent" points="-4,4 -4,-1147.81 1076.69,-1147.81 1076.69,4 -4,4"/>
<!-- linodenet -->
<g id="node1" class="node">
<title>linodenet</title><style>.edge>path:hover{stroke-width:8}</style>
<ellipse fill="#bd0404" stroke="black" cx="432" cy="-1125.81" rx="32.93" ry="18"/>
<text text-anchor="middle" x="432" y="-1123.31" font-family="Helvetica,sans-Serif" font-size="10.00" fill="#ffffff">linodenet</text>
</g>
<!-- linodenet_config -->
<g id="node2" class="node">
<title>linodenet_config</title><style>.edge>path:hover{stroke-width:8}</style>
<ellipse fill="#c82323" stroke="black" cx="137" cy="-115.2" rx="41.94" ry="21.43"/>
<text text-anchor="middle" x="137" y="-118.2" font-family="Helvetica,sans-Serif" font-size="10.00" fill="#ffffff">linodenet.</text>
<text text-anchor="middle" x="137" y="-107.2" font-family="Helvetica,sans-Serif" font-size="10.00" fill="#ffffff">config</text>
</g>
<!-- linodenet_config&#45;&gt;linodenet -->
<g id="edge1" class="edge">
<title>linodenet_config&#45;&gt;linodenet</title><style>.edge>path:hover{stroke-width:8}</style>
<path fill="none" stroke="black" d="M134.64,-136.52C133.97,-147.33 134.08,-160.76 137,-172.41"/>
<path fill="none" stroke="black" d="M137,-173.41C154.9,-244.87 137,-265.49 137,-339.16 137,-339.16 137,-339.16 137,-529.13 137,-587.07 182.72,-606.69 156,-658.11"/>
<path fill="none" stroke="black" d="M156,-660.11C125.14,-712.73 75.84,-683.26 39,-731.88 0.63,-782.52 0,-805.87 0,-869.41 0,-869.41 0,-869.41 0,-965.39 0,-1048.16 282.64,-1101.33 390.69,-1118.64"/>
<polygon fill="#c82323" stroke="black" points="390.16,-1122.1 400.58,-1120.2 391.25,-1115.18 390.16,-1122.1"/>
</g>
<!-- linodenet_util__util -->
<g id="node30" class="node">
<title>linodenet_util__util</title><style>.edge>path:hover{stroke-width:8}</style>
<ellipse fill="#c43131" stroke="black" cx="207" cy="-238.4" rx="41.94" ry="28.98"/>
<text text-anchor="middle" x="207" y="-246.9" font-family="Helvetica,sans-Serif" font-size="10.00" fill="#ffffff">linodenet.</text>
<text text-anchor="middle" x="207" y="-235.9" font-family="Helvetica,sans-Serif" font-size="10.00" fill="#ffffff">util.</text>
<text text-anchor="middle" x="207" y="-224.9" font-family="Helvetica,sans-Serif" font-size="10.00" fill="#ffffff">_util</text>
</g>
<!-- linodenet_config&#45;&gt;linodenet_util__util -->
<g id="edge2" class="edge">
<title>linodenet_config&#45;&gt;linodenet_util__util</title><style>.edge>path:hover{stroke-width:8}</style>
<path fill="none" stroke="black" d="M137,-173.41C141.14,-189.94 153.38,-203.57 166.49,-213.93"/>
<polygon fill="#c82323" stroke="black" points="164.57,-216.87 174.7,-219.96 168.71,-211.22 164.57,-216.87"/>
</g>
<!-- linodenet_config__config -->
<g id="node3" class="node">
<title>linodenet_config__config</title><style>.edge>path:hover{stroke-width:8}</style>
<ellipse fill="#c24747" stroke="black" cx="137" cy="-28.99" rx="41.94" ry="28.98"/>
<text text-anchor="middle" x="137" y="-37.49" font-family="Helvetica,sans-Serif" font-size="10.00" fill="#ffffff">linodenet.</text>
<text text-anchor="middle" x="137" y="-26.49" font-family="Helvetica,sans-Serif" font-size="10.00" fill="#ffffff">config.</text>
<text text-anchor="middle" x="137" y="-15.49" font-family="Helvetica,sans-Serif" font-size="10.00" fill="#ffffff">_config</text>
</g>
<!-- linodenet_config__config&#45;&gt;linodenet_config -->
<g id="edge3" class="edge">
<title>linodenet_config__config&#45;&gt;linodenet_config</title><style>.edge>path:hover{stroke-width:8}</style>
<path fill="none" stroke="black" d="M137,-58.03C137,-66.24 137,-75.25 137,-83.61"/>
<polygon fill="#c24747" stroke="black" points="133.5,-83.74 137,-93.74 140.5,-83.74 133.5,-83.74"/>
</g>
<!-- linodenet_initializations -->
<g id="node4" class="node">
<title>linodenet_initializations</title><style>.edge>path:hover{stroke-width:8}</style>
<ellipse fill="#db0505" stroke="black" cx="694" cy="-528.13" rx="51.74" ry="21.43"/>
<text text-anchor="middle" x="694" y="-531.13" font-family="Helvetica,sans-Serif" font-size="10.00" fill="#ffffff">linodenet.</text>
<text text-anchor="middle" x="694" y="-520.13" font-family="Helvetica,sans-Serif" font-size="10.00" fill="#ffffff">initializations</text>
</g>
<!-- linodenet_initializations&#45;&gt;linodenet -->
<g id="edge4" class="edge">
<title>linodenet_initializations&#45;&gt;linodenet</title><style>.edge>path:hover{stroke-width:8}</style>
<path fill="none" stroke="black" d="M690,-660.11C688.46,-697.73 717.73,-698.42 735,-731.88 765.35,-790.68 785.9,-803.52 792,-869.41"/>
<path fill="none" stroke="black" d="M792,-871.41C795.56,-910.85 823.41,-1025.49 792,-1049.6"/>
<path fill="none" stroke="black" d="M792,-1051.6C741.52,-1088.23 558.03,-1111.62 474.24,-1120.62"/>
<polygon fill="#db0505" stroke="black" points="473.87,-1117.14 464.3,-1121.67 474.61,-1124.1 473.87,-1117.14"/>
</g>
<!-- linodenet_models__linodenet -->
<g id="node9" class="node">
<title>linodenet_models__linodenet</title><style>.edge>path:hover{stroke-width:8}</style>
<ellipse fill="#7a2828" stroke="black" cx="432" cy="-964.39" rx="43.27" ry="28.98"/>
<text text-anchor="middle" x="432" y="-972.89" font-family="Helvetica,sans-Serif" font-size="10.00" fill="#ffffff">linodenet.</text>
<text text-anchor="middle" x="432" y="-961.89" font-family="Helvetica,sans-Serif" font-size="10.00" fill="#ffffff">models.</text>
<text text-anchor="middle" x="432" y="-950.89" font-family="Helvetica,sans-Serif" font-size="10.00" fill="#ffffff">_linodenet</text>
</g>
<!-- linodenet_initializations&#45;&gt;linodenet_models__linodenet -->
<g id="edge5" class="edge">
<title>linodenet_initializations&#45;&gt;linodenet_models__linodenet</title><style>.edge>path:hover{stroke-width:8}</style>
<path fill="none" stroke="black" d="M693.32,-549.68C692.48,-575.13 691.05,-619.81 690,-658.11"/>
<path fill="none" stroke="black" d="M690,-660.11C687.6,-718.59 614,-709.12 614,-767.65"/>
</g>
<!-- linodenet_models_encoders_iresnet -->
<g id="node14" class="node">
<title>linodenet_models_encoders_iresnet</title><style>.edge>path:hover{stroke-width:8}</style>
<ellipse fill="#a83838" stroke="black" cx="544" cy="-768.65" rx="41.94" ry="36.54"/>
<text text-anchor="middle" x="544" y="-782.65" font-family="Helvetica,sans-Serif" font-size="10.00" fill="#ffffff">linodenet.</text>
<text text-anchor="middle" x="544" y="-771.65" font-family="Helvetica,sans-Serif" font-size="10.00" fill="#ffffff">models.</text>
<text text-anchor="middle" x="544" y="-760.65" font-family="Helvetica,sans-Serif" font-size="10.00" fill="#ffffff">encoders.</text>
<text text-anchor="middle" x="544" y="-749.65" font-family="Helvetica,sans-Serif" font-size="10.00" fill="#ffffff">iresnet</text>
</g>
<!-- linodenet_initializations&#45;&gt;linodenet_models_encoders_iresnet -->
<g id="edge6" class="edge">
<title>linodenet_initializations&#45;&gt;linodenet_models_encoders_iresnet</title><style>.edge>path:hover{stroke-width:8}</style>
<path fill="none" stroke="black" d="M681.47,-549.05C656.84,-588.21 601.71,-675.88 569.24,-727.51"/>
<polygon fill="#db0505" stroke="black" points="566.21,-725.76 563.85,-736.09 572.13,-729.49 566.21,-725.76"/>
</g>
<!-- linodenet_models_system__system -->
<g id="node20" class="node">
<title>linodenet_models_system__system</title><style>.edge>path:hover{stroke-width:8}</style>
<ellipse fill="#a13535" stroke="black" cx="684" cy="-768.65" rx="41.94" ry="36.54"/>
<text text-anchor="middle" x="684" y="-782.65" font-family="Helvetica,sans-Serif" font-size="10.00" fill="#ffffff">linodenet.</text>
<text text-anchor="middle" x="684" y="-771.65" font-family="Helvetica,sans-Serif" font-size="10.00" fill="#ffffff">models.</text>
<text text-anchor="middle" x="684" y="-760.65" font-family="Helvetica,sans-Serif" font-size="10.00" fill="#ffffff">system.</text>
<text text-anchor="middle" x="684" y="-749.65" font-family="Helvetica,sans-Serif" font-size="10.00" fill="#ffffff">_system</text>
</g>
<!-- linodenet_initializations&#45;&gt;linodenet_models_system__system -->
<g id="edge7" class="edge">
<title>linodenet_initializations&#45;&gt;linodenet_models_system__system</title><style>.edge>path:hover{stroke-width:8}</style>
<path fill="none" stroke="black" d="M690,-660.11C689.45,-680.3 688.29,-702.59 687.14,-721.62"/>
<polygon fill="#db0505" stroke="black" points="683.64,-721.63 686.51,-731.82 690.62,-722.06 683.64,-721.63"/>
</g>
<!-- linodenet_initializations_functional -->
<g id="node5" class="node">
<title>linodenet_initializations_functional</title><style>.edge>path:hover{stroke-width:8}</style>
<ellipse fill="#d60b0b" stroke="black" cx="614" cy="-441.92" rx="53.98" ry="28.98"/>
<text text-anchor="middle" x="614" y="-450.42" font-family="Helvetica,sans-Serif" font-size="10.00" fill="#ffffff">linodenet.</text>
<text text-anchor="middle" x="614" y="-439.42" font-family="Helvetica,sans-Serif" font-size="10.00" fill="#ffffff">initializations.</text>
<text text-anchor="middle" x="614" y="-428.42" font-family="Helvetica,sans-Serif" font-size="10.00" fill="#ffffff">functional</text>
</g>
<!-- linodenet_initializations_functional&#45;&gt;linodenet_initializations -->
<g id="edge8" class="edge">
<title>linodenet_initializations_functional&#45;&gt;linodenet_initializations</title><style>.edge>path:hover{stroke-width:8}</style>
<path fill="none" stroke="black" d="M638,-468.19C647.78,-478.48 659.08,-490.38 668.96,-500.78"/>
<polygon fill="#d60b0b" stroke="black" points="666.44,-503.2 675.87,-508.04 671.52,-498.38 666.44,-503.2"/>
</g>
<!-- linodenet_initializations_functional&#45;&gt;linodenet_models__linodenet -->
<g id="edge9" class="edge">
<title>linodenet_initializations_functional&#45;&gt;linodenet_models__linodenet</title><style>.edge>path:hover{stroke-width:8}</style>
<path fill="none" stroke="black" d="M606.55,-470.74C603.92,-481.9 601.3,-494.93 600,-506.91 597.97,-525.66 599.4,-530.49 600,-549.34 603.11,-646.52 617.1,-670.47 614,-767.65"/>
</g>
<!-- linodenet_initializations_functional&#45;&gt;linodenet_models_encoders_iresnet -->
<g id="edge10" class="edge">
<title>linodenet_initializations_functional&#45;&gt;linodenet_models_encoders_iresnet</title><style>.edge>path:hover{stroke-width:8}</style>
<path fill="none" stroke="black" d="M589.92,-468.14C580.22,-479.34 569.55,-493.1 562,-506.91 536.1,-554.31 532.55,-569.01 524,-622.34 518.82,-654.61 519.57,-663.5 524,-695.88 525.22,-704.82 527.26,-714.21 529.59,-723.15"/>
<polygon fill="#d60b0b" stroke="black" points="526.27,-724.29 532.3,-733.01 533.02,-722.43 526.27,-724.29"/>
</g>
<!-- linodenet_initializations_functional&#45;&gt;linodenet_models_system__system -->
<g id="edge11" class="edge">
<title>linodenet_initializations_functional&#45;&gt;linodenet_models_system__system</title><style>.edge>path:hover{stroke-width:8}</style>
<path fill="none" stroke="black" d="M604.61,-470.71C600.19,-489.57 598.76,-513.47 614,-527.13"/>
</g>
<!-- linodenet_initializations_functional__functional -->
<g id="node6" class="node">
<title>linodenet_initializations_functional__functional</title><style>.edge>path:hover{stroke-width:8}</style>
<ellipse fill="#c24747" stroke="black" cx="614" cy="-340.16" rx="53.98" ry="36.54"/>
<text text-anchor="middle" x="614" y="-354.16" font-family="Helvetica,sans-Serif" font-size="10.00" fill="#ffffff">linodenet.</text>
<text text-anchor="middle" x="614" y="-343.16" font-family="Helvetica,sans-Serif" font-size="10.00" fill="#ffffff">initializations.</text>
<text text-anchor="middle" x="614" y="-332.16" font-family="Helvetica,sans-Serif" font-size="10.00" fill="#ffffff">functional.</text>
<text text-anchor="middle" x="614" y="-321.16" font-family="Helvetica,sans-Serif" font-size="10.00" fill="#ffffff">_functional</text>
</g>
<!-- linodenet_initializations_functional__functional&#45;&gt;linodenet_initializations_functional -->
<g id="edge12" class="edge">
<title>linodenet_initializations_functional__functional&#45;&gt;linodenet_initializations_functional</title><style>.edge>path:hover{stroke-width:8}</style>
<path fill="none" stroke="black" d="M614,-377.18C614,-385.42 614,-394.21 614,-402.54"/>
<polygon fill="#c24747" stroke="black" points="610.5,-402.78 614,-412.78 617.5,-402.78 610.5,-402.78"/>
</g>
<!-- linodenet_initializations_modular -->
<g id="node7" class="node">
<title>linodenet_initializations_modular</title><style>.edge>path:hover{stroke-width:8}</style>
<ellipse fill="#c24747" stroke="black" cx="739" cy="-441.92" rx="53.98" ry="28.98"/>
<text text-anchor="middle" x="739" y="-450.42" font-family="Helvetica,sans-Serif" font-size="10.00" fill="#ffffff">linodenet.</text>
<text text-anchor="middle" x="739" y="-439.42" font-family="Helvetica,sans-Serif" font-size="10.00" fill="#ffffff">initializations.</text>
<text text-anchor="middle" x="739" y="-428.42" font-family="Helvetica,sans-Serif" font-size="10.00" fill="#ffffff">modular</text>
</g>
<!-- linodenet_initializations_modular&#45;&gt;linodenet_initializations -->
<g id="edge13" class="edge">
<title>linodenet_initializations_modular&#45;&gt;linodenet_initializations</title><style>.edge>path:hover{stroke-width:8}</style>
<path fill="none" stroke="black" d="M724.51,-470.03C719.71,-479.02 714.34,-489.06 709.47,-498.19"/>
<polygon fill="#c24747" stroke="black" points="706.23,-496.81 704.61,-507.28 712.41,-500.11 706.23,-496.81"/>
</g>
<!-- linodenet_models -->
<g id="node8" class="node">
<title>linodenet_models</title><style>.edge>path:hover{stroke-width:8}</style>
<ellipse fill="#bd0404" stroke="black" cx="432" cy="-1050.6" rx="41.94" ry="21.43"/>
<text text-anchor="middle" x="432" y="-1053.6" font-family="Helvetica,sans-Serif" font-size="10.00" fill="#ffffff">linodenet.</text>
<text text-anchor="middle" x="432" y="-1042.6" font-family="Helvetica,sans-Serif" font-size="10.00" fill="#ffffff">models</text>
</g>
<!-- linodenet_models&#45;&gt;linodenet -->
<g id="edge14" class="edge">
<title>linodenet_models&#45;&gt;linodenet</title><style>.edge>path:hover{stroke-width:8}</style>
<path fill="none" stroke="black" d="M432,-1071.99C432,-1079.85 432,-1088.95 432,-1097.36"/>
<polygon fill="#bd0404" stroke="black" points="428.5,-1097.5 432,-1107.5 435.5,-1097.5 428.5,-1097.5"/>
</g>
<!-- linodenet_models__linodenet&#45;&gt;linodenet_models -->
<g id="edge15" class="edge">
<title>linodenet_models__linodenet&#45;&gt;linodenet_models</title><style>.edge>path:hover{stroke-width:8}</style>
<path fill="none" stroke="black" d="M432,-993.43C432,-1001.64 432,-1010.65 432,-1019.01"/>
<polygon fill="#7a2828" stroke="black" points="428.5,-1019.14 432,-1029.14 435.5,-1019.14 428.5,-1019.14"/>
</g>
<!-- linodenet_models_embeddings -->
<g id="node10" class="node">
<title>linodenet_models_embeddings</title><style>.edge>path:hover{stroke-width:8}</style>
<ellipse fill="#bf2121" stroke="black" cx="432" cy="-870.41" rx="48.58" ry="28.98"/>
<text text-anchor="middle" x="432" y="-878.91" font-family="Helvetica,sans-Serif" font-size="10.00" fill="#ffffff">linodenet.</text>
<text text-anchor="middle" x="432" y="-867.91" font-family="Helvetica,sans-Serif" font-size="10.00" fill="#ffffff">models.</text>
<text text-anchor="middle" x="432" y="-856.91" font-family="Helvetica,sans-Serif" font-size="10.00" fill="#ffffff">embeddings</text>
</g>
<!-- linodenet_models_embeddings&#45;&gt;linodenet_models -->
<g id="edge16" class="edge">
<title>linodenet_models_embeddings&#45;&gt;linodenet_models</title><style>.edge>path:hover{stroke-width:8}</style>
<path fill="none" stroke="black" d="M393.84,-888.57C362.29,-905.38 325.19,-932.86 342,-963.39"/>
</g>
<!-- linodenet_models_embeddings&#45;&gt;linodenet_models__linodenet -->
<g id="edge17" class="edge">
<title>linodenet_models_embeddings&#45;&gt;linodenet_models__linodenet</title><style>.edge>path:hover{stroke-width:8}</style>
<path fill="none" stroke="black" d="M432,-899.51C432,-907.55 432,-916.45 432,-924.99"/>
<polygon fill="#bf2121" stroke="black" points="428.5,-925.15 432,-935.15 435.5,-925.15 428.5,-925.15"/>
</g>
<!-- linodenet_models_embeddings__embeddings -->
<g id="node11" class="node">
<title>linodenet_models_embeddings__embeddings</title><style>.edge>path:hover{stroke-width:8}</style>
<ellipse fill="#b83d3d" stroke="black" cx="432" cy="-768.65" rx="52.15" ry="36.54"/>
<text text-anchor="middle" x="432" y="-782.65" font-family="Helvetica,sans-Serif" font-size="10.00" fill="#ffffff">linodenet.</text>
<text text-anchor="middle" x="432" y="-771.65" font-family="Helvetica,sans-Serif" font-size="10.00" fill="#ffffff">models.</text>
<text text-anchor="middle" x="432" y="-760.65" font-family="Helvetica,sans-Serif" font-size="10.00" fill="#ffffff">embeddings.</text>
<text text-anchor="middle" x="432" y="-749.65" font-family="Helvetica,sans-Serif" font-size="10.00" fill="#ffffff">_embeddings</text>
</g>
<!-- linodenet_models_embeddings__embeddings&#45;&gt;linodenet_models_embeddings -->
<g id="edge18" class="edge">
<title>linodenet_models_embeddings__embeddings&#45;&gt;linodenet_models_embeddings</title><style>.edge>path:hover{stroke-width:8}</style>
<path fill="none" stroke="black" d="M432,-805.66C432,-813.91 432,-822.7 432,-831.03"/>
<polygon fill="#b83d3d" stroke="black" points="428.5,-831.27 432,-841.27 435.5,-831.27 428.5,-831.27"/>
</g>
<!-- linodenet_models_encoders -->
<g id="node12" class="node">
<title>linodenet_models_encoders</title><style>.edge>path:hover{stroke-width:8}</style>
<ellipse fill="#af1313" stroke="black" cx="214" cy="-870.41" rx="41.94" ry="28.98"/>
<text text-anchor="middle" x="214" y="-878.91" font-family="Helvetica,sans-Serif" font-size="10.00" fill="#ffffff">linodenet.</text>
<text text-anchor="middle" x="214" y="-867.91" font-family="Helvetica,sans-Serif" font-size="10.00" fill="#ffffff">models.</text>
<text text-anchor="middle" x="214" y="-856.91" font-family="Helvetica,sans-Serif" font-size="10.00" fill="#ffffff">encoders</text>
</g>
<!-- linodenet_models_encoders&#45;&gt;linodenet_models -->
<g id="edge19" class="edge">
<title>linodenet_models_encoders&#45;&gt;linodenet_models</title><style>.edge>path:hover{stroke-width:8}</style>
<path fill="none" stroke="black" d="M245.35,-889.59C279.56,-910.13 330.95,-943.32 342,-963.39"/>
<path fill="none" stroke="black" d="M342,-965.39C355.72,-990.32 379.48,-1012.08 399.14,-1027.23"/>
<polygon fill="#af1313" stroke="black" points="397.17,-1030.12 407.27,-1033.3 401.36,-1024.51 397.17,-1030.12"/>
</g>
<!-- linodenet_models_encoders&#45;&gt;linodenet_models__linodenet -->
<g id="edge20" class="edge">
<title>linodenet_models_encoders&#45;&gt;linodenet_models__linodenet</title><style>.edge>path:hover{stroke-width:8}</style>
<path fill="none" stroke="black" d="M247.25,-887.94C255.3,-891.81 263.92,-895.84 272,-899.4 309.71,-916.02 353.17,-933.28 385.26,-945.68"/>
<polygon fill="#af1313" stroke="black" points="384.25,-949.04 394.84,-949.37 386.76,-942.51 384.25,-949.04"/>
</g>
<!-- linodenet_models_encoders_ft_transformer -->
<g id="node13" class="node">
<title>linodenet_models_encoders_ft_transformer</title><style>.edge>path:hover{stroke-width:8}</style>
<ellipse fill="#c43131" stroke="black" cx="238" cy="-659.11" rx="54.39" ry="36.54"/>
<text text-anchor="middle" x="238" y="-673.11" font-family="Helvetica,sans-Serif" font-size="10.00" fill="#ffffff">linodenet.</text>
<text text-anchor="middle" x="238" y="-662.11" font-family="Helvetica,sans-Serif" font-size="10.00" fill="#ffffff">models.</text>
<text text-anchor="middle" x="238" y="-651.11" font-family="Helvetica,sans-Serif" font-size="10.00" fill="#ffffff">encoders.</text>
<text text-anchor="middle" x="238" y="-640.11" font-family="Helvetica,sans-Serif" font-size="10.00" fill="#ffffff">ft_transformer</text>
</g>
<!-- linodenet_models_encoders_ft_transformer&#45;&gt;linodenet_models_encoders -->
<g id="edge21" class="edge">
<title>linodenet_models_encoders_ft_transformer&#45;&gt;linodenet_models_encoders</title><style>.edge>path:hover{stroke-width:8}</style>
<path fill="none" stroke="black" d="M196.84,-683.24C188.11,-687.72 178.86,-692.17 170,-695.88 121.38,-716.23 88.1,-689.33 57,-731.88 37.71,-758.27 38.76,-778.29 57,-805.42 80.49,-840.36 126.75,-856.23 163,-863.44"/>
<polygon fill="#c43131" stroke="black" points="162.47,-866.9 172.93,-865.25 163.72,-860.01 162.47,-866.9"/>
</g>
<!-- linodenet_models_encoders_resnet -->
<g id="node15" class="node">
<title>linodenet_models_encoders_resnet</title><style>.edge>path:hover{stroke-width:8}</style>
<ellipse fill="#a13535" stroke="black" cx="108" cy="-768.65" rx="41.94" ry="36.54"/>
<text text-anchor="middle" x="108" y="-782.65" font-family="Helvetica,sans-Serif" font-size="10.00" fill="#ffffff">linodenet.</text>
<text text-anchor="middle" x="108" y="-771.65" font-family="Helvetica,sans-Serif" font-size="10.00" fill="#ffffff">models.</text>
<text text-anchor="middle" x="108" y="-760.65" font-family="Helvetica,sans-Serif" font-size="10.00" fill="#ffffff">encoders.</text>
<text text-anchor="middle" x="108" y="-749.65" font-family="Helvetica,sans-Serif" font-size="10.00" fill="#ffffff">resnet</text>
</g>
<!-- linodenet_models_encoders_ft_transformer&#45;&gt;linodenet_models_encoders_resnet -->
<g id="edge22" class="edge">
<title>linodenet_models_encoders_ft_transformer&#45;&gt;linodenet_models_encoders_resnet</title><style>.edge>path:hover{stroke-width:8}</style>
<path fill="none" stroke="black" d="M204.18,-688.08C186.44,-702.76 164.63,-720.8 146.27,-735.99"/>
<polygon fill="#c43131" stroke="black" points="143.57,-733.68 138.1,-742.75 148.04,-739.07 143.57,-733.68"/>
</g>
<!-- linodenet_models_encoders_iresnet&#45;&gt;linodenet_models_encoders -->
<g id="edge23" class="edge">
<title>linodenet_models_encoders_iresnet&#45;&gt;linodenet_models_encoders</title><style>.edge>path:hover{stroke-width:8}</style>
<path fill="none" stroke="black" d="M513.73,-794.16C507.2,-798.48 500.11,-802.52 493,-805.42 400.83,-842.94 366.91,-811.48 272,-841.42 266.47,-843.16 260.79,-845.35 255.27,-847.73"/>
<polygon fill="#a83838" stroke="black" points="253.8,-844.55 246.15,-851.87 256.7,-850.92 253.8,-844.55"/>
</g>
<!-- linodenet_models_encoders_resnet&#45;&gt;linodenet_models_encoders -->
<g id="edge24" class="edge">
<title>linodenet_models_encoders_resnet&#45;&gt;linodenet_models_encoders</title><style>.edge>path:hover{stroke-width:8}</style>
<path fill="none" stroke="black" d="M136.13,-796.12C150.33,-809.49 167.62,-825.76 182.3,-839.58"/>
<polygon fill="#a13535" stroke="black" points="180.03,-842.24 189.71,-846.55 184.82,-837.14 180.03,-842.24"/>
</g>
<!-- linodenet_models_encoders_transformer -->
<g id="node16" class="node">
<title>linodenet_models_encoders_transformer</title><style>.edge>path:hover{stroke-width:8}</style>
<ellipse fill="#b83d3d" stroke="black" cx="214" cy="-768.65" rx="46.84" ry="36.54"/>
<text text-anchor="middle" x="214" y="-782.65" font-family="Helvetica,sans-Serif" font-size="10.00" fill="#ffffff">linodenet.</text>
<text text-anchor="middle" x="214" y="-771.65" font-family="Helvetica,sans-Serif" font-size="10.00" fill="#ffffff">models.</text>
<text text-anchor="middle" x="214" y="-760.65" font-family="Helvetica,sans-Serif" font-size="10.00" fill="#ffffff">encoders.</text>
<text text-anchor="middle" x="214" y="-749.65" font-family="Helvetica,sans-Serif" font-size="10.00" fill="#ffffff">transformer</text>
</g>
<!-- linodenet_models_encoders_transformer&#45;&gt;linodenet_models_encoders -->
<g id="edge25" class="edge">
<title>linodenet_models_encoders_transformer&#45;&gt;linodenet_models_encoders</title><style>.edge>path:hover{stroke-width:8}</style>
<path fill="none" stroke="black" d="M214,-805.66C214,-813.91 214,-822.7 214,-831.03"/>
<polygon fill="#b83d3d" stroke="black" points="210.5,-831.27 214,-841.27 217.5,-831.27 210.5,-831.27"/>
</g>
<!-- linodenet_models_filters -->
<g id="node17" class="node">
<title>linodenet_models_filters</title><style>.edge>path:hover{stroke-width:8}</style>
<ellipse fill="#bf2121" stroke="black" cx="323" cy="-870.41" rx="41.94" ry="28.98"/>
<text text-anchor="middle" x="323" y="-878.91" font-family="Helvetica,sans-Serif" font-size="10.00" fill="#ffffff">linodenet.</text>
<text text-anchor="middle" x="323" y="-867.91" font-family="Helvetica,sans-Serif" font-size="10.00" fill="#ffffff">models.</text>
<text text-anchor="middle" x="323" y="-856.91" font-family="Helvetica,sans-Serif" font-size="10.00" fill="#ffffff">filters</text>
</g>
<!-- linodenet_models_filters&#45;&gt;linodenet_models -->
<g id="edge26" class="edge">
<title>linodenet_models_filters&#45;&gt;linodenet_models</title><style>.edge>path:hover{stroke-width:8}</style>
<path fill="none" stroke="black" d="M324.47,-899.46C326.47,-918.49 331.15,-943.68 342,-963.39"/>
</g>
<!-- linodenet_models_filters&#45;&gt;linodenet_models__linodenet -->
<g id="edge27" class="edge">
<title>linodenet_models_filters&#45;&gt;linodenet_models__linodenet</title><style>.edge>path:hover{stroke-width:8}</style>
<path fill="none" stroke="black" d="M348.83,-893.21C363.41,-905.51 381.82,-921.05 397.61,-934.37"/>
<polygon fill="#bf2121" stroke="black" points="395.7,-937.34 405.6,-941.11 400.21,-931.99 395.7,-937.34"/>
</g>
<!-- linodenet_models_filters__filters -->
<g id="node18" class="node">
<title>linodenet_models_filters__filters</title><style>.edge>path:hover{stroke-width:8}</style>
<ellipse fill="#b83d3d" stroke="black" cx="320" cy="-768.65" rx="41.94" ry="36.54"/>
<text text-anchor="middle" x="320" y="-782.65" font-family="Helvetica,sans-Serif" font-size="10.00" fill="#ffffff">linodenet.</text>
<text text-anchor="middle" x="320" y="-771.65" font-family="Helvetica,sans-Serif" font-size="10.00" fill="#ffffff">models.</text>
<text text-anchor="middle" x="320" y="-760.65" font-family="Helvetica,sans-Serif" font-size="10.00" fill="#ffffff">filters.</text>
<text text-anchor="middle" x="320" y="-749.65" font-family="Helvetica,sans-Serif" font-size="10.00" fill="#ffffff">_filters</text>
</g>
<!-- linodenet_models_filters__filters&#45;&gt;linodenet_models_filters -->
<g id="edge28" class="edge">
<title>linodenet_models_filters__filters&#45;&gt;linodenet_models_filters</title><style>.edge>path:hover{stroke-width:8}</style>
<path fill="none" stroke="black" d="M321.08,-805.66C321.33,-813.91 321.6,-822.7 321.85,-831.03"/>
<polygon fill="#b83d3d" stroke="black" points="318.35,-831.38 322.15,-841.27 325.35,-831.17 318.35,-831.38"/>
</g>
<!-- linodenet_models_system -->
<g id="node19" class="node">
<title>linodenet_models_system</title><style>.edge>path:hover{stroke-width:8}</style>
<ellipse fill="#bf2121" stroke="black" cx="684" cy="-870.41" rx="41.94" ry="28.98"/>
<text text-anchor="middle" x="684" y="-878.91" font-family="Helvetica,sans-Serif" font-size="10.00" fill="#ffffff">linodenet.</text>
<text text-anchor="middle" x="684" y="-867.91" font-family="Helvetica,sans-Serif" font-size="10.00" fill="#ffffff">models.</text>
<text text-anchor="middle" x="684" y="-856.91" font-family="Helvetica,sans-Serif" font-size="10.00" fill="#ffffff">system</text>
</g>
<!-- linodenet_models_system&#45;&gt;linodenet_models -->
<g id="edge29" class="edge">
<title>linodenet_models_system&#45;&gt;linodenet_models</title><style>.edge>path:hover{stroke-width:8}</style>
<path fill="none" stroke="black" d="M655.09,-891.85C607.65,-925.4 513.61,-991.89 464.14,-1026.87"/>
<polygon fill="#bf2121" stroke="black" points="461.88,-1024.18 455.73,-1032.82 465.92,-1029.9 461.88,-1024.18"/>
</g>
<!-- linodenet_models_system&#45;&gt;linodenet_models__linodenet -->
<g id="edge30" class="edge">
<title>linodenet_models_system&#45;&gt;linodenet_models__linodenet</title><style>.edge>path:hover{stroke-width:8}</style>
<path fill="none" stroke="black" d="M651.51,-888.67C643.89,-892.42 635.74,-896.22 628,-899.4 579.16,-919.45 521.53,-937.64 481.46,-949.46"/>
<polygon fill="#bf2121" stroke="black" points="480.28,-946.16 471.66,-952.32 482.24,-952.87 480.28,-946.16"/>
</g>
<!-- linodenet_models_system__system&#45;&gt;linodenet_models_system -->
<g id="edge31" class="edge">
<title>linodenet_models_system__system&#45;&gt;linodenet_models_system</title><style>.edge>path:hover{stroke-width:8}</style>
<path fill="none" stroke="black" d="M684,-805.66C684,-813.91 684,-822.7 684,-831.03"/>
<polygon fill="#a13535" stroke="black" points="680.5,-831.27 684,-841.27 687.5,-831.27 680.5,-831.27"/>
</g>
<!-- linodenet_projections -->
<g id="node21" class="node">
<title>linodenet_projections</title><style>.edge>path:hover{stroke-width:8}</style>
<ellipse fill="#db0505" stroke="black" cx="858" cy="-528.13" rx="45.01" ry="21.43"/>
<text text-anchor="middle" x="858" y="-531.13" font-family="Helvetica,sans-Serif" font-size="10.00" fill="#ffffff">linodenet.</text>
<text text-anchor="middle" x="858" y="-520.13" font-family="Helvetica,sans-Serif" font-size="10.00" fill="#ffffff">projections</text>
</g>
<!-- linodenet_projections&#45;&gt;linodenet -->
<g id="edge32" class="edge">
<title>linodenet_projections&#45;&gt;linodenet</title><style>.edge>path:hover{stroke-width:8}</style>
<path fill="none" stroke="black" d="M792,-769.65C776.41,-811.16 785.22,-825.59 792,-869.41"/>
</g>
<!-- linodenet_projections&#45;&gt;linodenet_models__linodenet -->
<g id="edge33" class="edge">
<title>linodenet_projections&#45;&gt;linodenet_models__linodenet</title><style>.edge>path:hover{stroke-width:8}</style>
<path fill="none" stroke="black" d="M792,-660.11C783.26,-707.1 808.81,-722.91 792,-767.65"/>
<path fill="none" stroke="black" d="M792,-769.65C778.27,-806.19 634.35,-840.38 633,-841.42 621.09,-850.6 625.84,-860.14 614,-869.41"/>
</g>
<!-- linodenet_projections&#45;&gt;linodenet_models_system__system -->
<g id="edge34" class="edge">
<title>linodenet_projections&#45;&gt;linodenet_models_system__system</title><style>.edge>path:hover{stroke-width:8}</style>
<path fill="none" stroke="black" d="M841.46,-548.12C822.36,-572.01 793.37,-615.12 792,-658.11"/>
<path fill="none" stroke="black" d="M792,-660.11C785.34,-695.91 754.63,-724.29 727.66,-742.89"/>
<polygon fill="#db0505" stroke="black" points="725.47,-740.14 719.07,-748.58 729.33,-745.98 725.47,-740.14"/>
</g>
<!-- linodenet_regularizations_functional__functional -->
<g id="node27" class="node">
<title>linodenet_regularizations_functional__functional</title><style>.edge>path:hover{stroke-width:8}</style>
<ellipse fill="#b03a3a" stroke="black" cx="879" cy="-768.65" rx="58.88" ry="36.54"/>
<text text-anchor="middle" x="879" y="-782.65" font-family="Helvetica,sans-Serif" font-size="10.00" fill="#ffffff">linodenet.</text>
<text text-anchor="middle" x="879" y="-771.65" font-family="Helvetica,sans-Serif" font-size="10.00" fill="#ffffff">regularizations.</text>
<text text-anchor="middle" x="879" y="-760.65" font-family="Helvetica,sans-Serif" font-size="10.00" fill="#ffffff">functional.</text>
<text text-anchor="middle" x="879" y="-749.65" font-family="Helvetica,sans-Serif" font-size="10.00" fill="#ffffff">_functional</text>
</g>
<!-- linodenet_projections&#45;&gt;linodenet_regularizations_functional__functional -->
<g id="edge35" class="edge">
<title>linodenet_projections&#45;&gt;linodenet_regularizations_functional__functional</title><style>.edge>path:hover{stroke-width:8}</style>
<path fill="none" stroke="black" d="M792,-660.11C791.06,-689.5 810.93,-715.38 831.91,-734.39"/>
<polygon fill="#db0505" stroke="black" points="829.8,-737.19 839.66,-741.07 834.37,-731.89 829.8,-737.19"/>
</g>
<!-- linodenet_projections_functional -->
<g id="node22" class="node">
<title>linodenet_projections_functional</title><style>.edge>path:hover{stroke-width:8}</style>
<ellipse fill="#bf2121" stroke="black" cx="971" cy="-441.92" rx="47.25" ry="28.98"/>
<text text-anchor="middle" x="971" y="-450.42" font-family="Helvetica,sans-Serif" font-size="10.00" fill="#ffffff">linodenet.</text>
<text text-anchor="middle" x="971" y="-439.42" font-family="Helvetica,sans-Serif" font-size="10.00" fill="#ffffff">projections.</text>
<text text-anchor="middle" x="971" y="-428.42" font-family="Helvetica,sans-Serif" font-size="10.00" fill="#ffffff">functional</text>
</g>
<!-- linodenet_projections_functional&#45;&gt;linodenet_projections -->
<g id="edge36" class="edge">
<title>linodenet_projections_functional&#45;&gt;linodenet_projections</title><style>.edge>path:hover{stroke-width:8}</style>
<path fill="none" stroke="black" d="M941.61,-464.83C925.57,-476.78 905.71,-491.57 889.37,-503.75"/>
<polygon fill="#bf2121" stroke="black" points="887.12,-501.06 881.19,-509.85 891.3,-506.68 887.12,-501.06"/>
</g>
<!-- linodenet_projections_functional&#45;&gt;linodenet_regularizations_functional__functional -->
<g id="edge37" class="edge">
<title>linodenet_projections_functional&#45;&gt;linodenet_regularizations_functional__functional</title><style>.edge>path:hover{stroke-width:8}</style>
<path fill="none" stroke="black" d="M963.16,-470.61C947.25,-526.74 911.08,-654.41 891.75,-722.66"/>
<polygon fill="#bf2121" stroke="black" points="888.38,-721.7 889.02,-732.28 895.11,-723.61 888.38,-721.7"/>
</g>
<!-- linodenet_projections_functional__functional -->
<g id="node23" class="node">
<title>linodenet_projections_functional__functional</title><style>.edge>path:hover{stroke-width:8}</style>
<ellipse fill="#c24747" stroke="black" cx="971" cy="-340.16" rx="47.25" ry="36.54"/>
<text text-anchor="middle" x="971" y="-354.16" font-family="Helvetica,sans-Serif" font-size="10.00" fill="#ffffff">linodenet.</text>
<text text-anchor="middle" x="971" y="-343.16" font-family="Helvetica,sans-Serif" font-size="10.00" fill="#ffffff">projections.</text>
<text text-anchor="middle" x="971" y="-332.16" font-family="Helvetica,sans-Serif" font-size="10.00" fill="#ffffff">functional.</text>
<text text-anchor="middle" x="971" y="-321.16" font-family="Helvetica,sans-Serif" font-size="10.00" fill="#ffffff">_functional</text>
</g>
<!-- linodenet_projections_functional__functional&#45;&gt;linodenet_projections_functional -->
<g id="edge38" class="edge">
<title>linodenet_projections_functional__functional&#45;&gt;linodenet_projections_functional</title><style>.edge>path:hover{stroke-width:8}</style>
<path fill="none" stroke="black" d="M971,-377.18C971,-385.42 971,-394.21 971,-402.54"/>
<polygon fill="#c24747" stroke="black" points="967.5,-402.78 971,-412.78 974.5,-402.78 967.5,-402.78"/>
</g>
<!-- linodenet_projections_modular -->
<g id="node24" class="node">
<title>linodenet_projections_modular</title><style>.edge>path:hover{stroke-width:8}</style>
<ellipse fill="#c24747" stroke="black" cx="858" cy="-441.92" rx="47.25" ry="28.98"/>
<text text-anchor="middle" x="858" y="-450.42" font-family="Helvetica,sans-Serif" font-size="10.00" fill="#ffffff">linodenet.</text>
<text text-anchor="middle" x="858" y="-439.42" font-family="Helvetica,sans-Serif" font-size="10.00" fill="#ffffff">projections.</text>
<text text-anchor="middle" x="858" y="-428.42" font-family="Helvetica,sans-Serif" font-size="10.00" fill="#ffffff">modular</text>
</g>
<!-- linodenet_projections_modular&#45;&gt;linodenet_projections -->
<g id="edge39" class="edge">
<title>linodenet_projections_modular&#45;&gt;linodenet_projections</title><style>.edge>path:hover{stroke-width:8}</style>
<path fill="none" stroke="black" d="M858,-470.96C858,-479.17 858,-488.18 858,-496.54"/>
<polygon fill="#c24747" stroke="black" points="854.5,-496.67 858,-506.67 861.5,-496.67 854.5,-496.67"/>
</g>
<!-- linodenet_regularizations -->
<g id="node25" class="node">
<title>linodenet_regularizations</title><style>.edge>path:hover{stroke-width:8}</style>
<ellipse fill="#bf2121" stroke="black" cx="879" cy="-964.39" rx="56.64" ry="21.43"/>
<text text-anchor="middle" x="879" y="-967.39" font-family="Helvetica,sans-Serif" font-size="10.00" fill="#ffffff">linodenet.</text>
<text text-anchor="middle" x="879" y="-956.39" font-family="Helvetica,sans-Serif" font-size="10.00" fill="#ffffff">regularizations</text>
</g>
<!-- linodenet_regularizations&#45;&gt;linodenet -->
<g id="edge40" class="edge">
<title>linodenet_regularizations&#45;&gt;linodenet</title><style>.edge>path:hover{stroke-width:8}</style>
<path fill="none" stroke="black" d="M861.45,-984.76C844.63,-1002.73 818.01,-1029.63 792,-1049.6"/>
</g>
<!-- linodenet_regularizations_functional -->
<g id="node26" class="node">
<title>linodenet_regularizations_functional</title><style>.edge>path:hover{stroke-width:8}</style>
<ellipse fill="#b42d2d" stroke="black" cx="879" cy="-870.41" rx="58.88" ry="28.98"/>
<text text-anchor="middle" x="879" y="-878.91" font-family="Helvetica,sans-Serif" font-size="10.00" fill="#ffffff">linodenet.</text>
<text text-anchor="middle" x="879" y="-867.91" font-family="Helvetica,sans-Serif" font-size="10.00" fill="#ffffff">regularizations.</text>
<text text-anchor="middle" x="879" y="-856.91" font-family="Helvetica,sans-Serif" font-size="10.00" fill="#ffffff">functional</text>
</g>
<!-- linodenet_regularizations_functional&#45;&gt;linodenet_regularizations -->
<g id="edge41" class="edge">
<title>linodenet_regularizations_functional&#45;&gt;linodenet_regularizations</title><style>.edge>path:hover{stroke-width:8}</style>
<path fill="none" stroke="black" d="M879,-899.51C879,-910.05 879,-922.07 879,-932.83"/>
<polygon fill="#b42d2d" stroke="black" points="875.5,-933.05 879,-943.05 882.5,-933.05 875.5,-933.05"/>
</g>
<!-- linodenet_regularizations_functional__functional&#45;&gt;linodenet_regularizations_functional -->
<g id="edge42" class="edge">
<title>linodenet_regularizations_functional__functional&#45;&gt;linodenet_regularizations_functional</title><style>.edge>path:hover{stroke-width:8}</style>
<path fill="none" stroke="black" d="M879,-805.66C879,-813.91 879,-822.7 879,-831.03"/>
<polygon fill="#b03a3a" stroke="black" points="875.5,-831.27 879,-841.27 882.5,-831.27 875.5,-831.27"/>
</g>
<!-- linodenet_regularizations_modular -->
<g id="node28" class="node">
<title>linodenet_regularizations_modular</title><style>.edge>path:hover{stroke-width:8}</style>
<ellipse fill="#c24747" stroke="black" cx="1014" cy="-870.41" rx="58.88" ry="28.98"/>
<text text-anchor="middle" x="1014" y="-878.91" font-family="Helvetica,sans-Serif" font-size="10.00" fill="#ffffff">linodenet.</text>
<text text-anchor="middle" x="1014" y="-867.91" font-family="Helvetica,sans-Serif" font-size="10.00" fill="#ffffff">regularizations.</text>
<text text-anchor="middle" x="1014" y="-856.91" font-family="Helvetica,sans-Serif" font-size="10.00" fill="#ffffff">modular</text>
</g>
<!-- linodenet_regularizations_modular&#45;&gt;linodenet_regularizations -->
<g id="edge43" class="edge">
<title>linodenet_regularizations_modular&#45;&gt;linodenet_regularizations</title><style>.edge>path:hover{stroke-width:8}</style>
<path fill="none" stroke="black" d="M980.28,-894.38C960.05,-908.17 934.37,-925.66 913.93,-939.59"/>
<polygon fill="#c24747" stroke="black" points="911.82,-936.8 905.53,-945.32 915.76,-942.58 911.82,-936.8"/>
</g>
<!-- linodenet_util -->
<g id="node29" class="node">
<title>linodenet_util</title><style>.edge>path:hover{stroke-width:8}</style>
<ellipse fill="#db0505" stroke="black" cx="277" cy="-441.92" rx="41.59" ry="18"/>
<text text-anchor="middle" x="277" y="-439.42" font-family="Helvetica,sans-Serif" font-size="10.00" fill="#ffffff">linodenet.util</text>
</g>
<!-- linodenet_util&#45;&gt;linodenet -->
<g id="edge44" class="edge">
<title>linodenet_util&#45;&gt;linodenet</title><style>.edge>path:hover{stroke-width:8}</style>
<path fill="none" stroke="black" d="M253.88,-457.15C218.09,-481.15 155.33,-532.3 175,-585.34"/>
<path fill="none" stroke="black" d="M175,-586.34C183.51,-618.22 171.22,-628.83 156,-658.11"/>
</g>
<!-- linodenet_util&#45;&gt;linodenet_models__linodenet -->
<g id="edge45" class="edge">
<title>linodenet_util&#45;&gt;linodenet_models__linodenet</title><style>.edge>path:hover{stroke-width:8}</style>
<path fill="none" stroke="black" d="M301.73,-456.69C348.97,-483.83 453.62,-548.11 524,-622.34 576.27,-677.46 614,-691.68 614,-767.65"/>
<path fill="none" stroke="black" d="M614,-769.65C612.59,-813.96 648.91,-842.07 614,-869.41"/>
<path fill="none" stroke="black" d="M614,-871.41C572.38,-904.01 517.38,-929.88 478.77,-945.77"/>
<polygon fill="#db0505" stroke="black" points="477.29,-942.6 469.33,-949.6 479.91,-949.09 477.29,-942.6"/>
</g>
<!-- linodenet_util&#45;&gt;linodenet_models_embeddings__embeddings -->
<g id="edge46" class="edge">
<title>linodenet_util&#45;&gt;linodenet_models_embeddings__embeddings</title><style>.edge>path:hover{stroke-width:8}</style>
<path fill="none" stroke="black" d="M320,-660.11C338.22,-688.67 365.55,-715.11 388.64,-734.62"/>
<polygon fill="#db0505" stroke="black" points="386.68,-737.54 396.62,-741.23 391.15,-732.15 386.68,-737.54"/>
</g>
<!-- linodenet_util&#45;&gt;linodenet_models_encoders_ft_transformer -->
<g id="edge47" class="edge">
<title>linodenet_util&#45;&gt;linodenet_models_encoders_ft_transformer</title><style>.edge>path:hover{stroke-width:8}</style>
<path fill="none" stroke="black" d="M175,-586.34C179.87,-599.47 188.39,-611.76 197.62,-622.32"/>
<polygon fill="#db0505" stroke="black" points="195.07,-624.72 204.42,-629.69 200.21,-619.97 195.07,-624.72"/>
</g>
<!-- linodenet_util&#45;&gt;linodenet_models_encoders_iresnet -->
<g id="edge48" class="edge">
<title>linodenet_util&#45;&gt;linodenet_models_encoders_iresnet</title><style>.edge>path:hover{stroke-width:8}</style>
<path fill="none" stroke="black" d="M320,-660.11C364.77,-730.29 420.05,-691.79 493,-731.88 496.68,-733.9 500.41,-736.13 504.1,-738.46"/>
<polygon fill="#db0505" stroke="black" points="502.31,-741.47 512.59,-744.03 506.15,-735.61 502.31,-741.47"/>
</g>
<!-- linodenet_util&#45;&gt;linodenet_models_encoders_resnet -->
<g id="edge49" class="edge">
<title>linodenet_util&#45;&gt;linodenet_models_encoders_resnet</title><style>.edge>path:hover{stroke-width:8}</style>
<path fill="none" stroke="black" d="M175,-586.34C195.25,-640.95 255.73,-585.7 301,-622.34 314.99,-633.66 310.32,-642.93 320,-658.11"/>
<path fill="none" stroke="black" d="M320,-660.11C329.68,-675.29 315.17,-684.78 301,-695.88 249.41,-736.3 217.47,-704.33 158,-731.88 154.35,-733.57 150.68,-735.54 147.09,-737.67"/>
<polygon fill="#db0505" stroke="black" points="144.92,-734.91 138.36,-743.23 148.68,-740.81 144.92,-734.91"/>
</g>
<!-- linodenet_util&#45;&gt;linodenet_models_encoders_transformer -->
<g id="edge50" class="edge">
<title>linodenet_util&#45;&gt;linodenet_models_encoders_transformer</title><style>.edge>path:hover{stroke-width:8}</style>
<path fill="none" stroke="black" d="M320,-660.11C330.76,-676.97 291.04,-711.93 257.19,-737.43"/>
<polygon fill="#db0505" stroke="black" points="254.7,-734.92 248.75,-743.69 258.87,-740.54 254.7,-734.92"/>
</g>
<!-- linodenet_util&#45;&gt;linodenet_models_filters__filters -->
<g id="edge51" class="edge">
<title>linodenet_util&#45;&gt;linodenet_models_filters__filters</title><style>.edge>path:hover{stroke-width:8}</style>
<path fill="none" stroke="black" d="M320,-660.11C331.6,-678.29 332.73,-701.95 330.48,-722.45"/>
<polygon fill="#db0505" stroke="black" points="326.99,-722.14 329.09,-732.53 333.92,-723.1 326.99,-722.14"/>
</g>
<!-- linodenet_util&#45;&gt;linodenet_models_system__system -->
<g id="edge52" class="edge">
<title>linodenet_util&#45;&gt;linodenet_models_system__system</title><style>.edge>path:hover{stroke-width:8}</style>
<path fill="none" stroke="black" d="M316.3,-448.09C395.38,-459.21 569.93,-487.63 614,-527.13"/>
<path fill="none" stroke="black" d="M614,-529.13C642.62,-554.77 665.29,-660.17 676.45,-721.94"/>
<polygon fill="#db0505" stroke="black" points="673.01,-722.6 678.2,-731.83 679.9,-721.37 673.01,-722.6"/>
</g>
<!-- linodenet_util__util&#45;&gt;linodenet_util -->
<g id="edge53" class="edge">
<title>linodenet_util__util&#45;&gt;linodenet_util</title><style>.edge>path:hover{stroke-width:8}</style>
<path fill="none" stroke="black" d="M230.51,-262.59C240.62,-273.94 251.56,-288.38 258,-303.39 273.41,-339.34 276.92,-384.97 277.42,-413.57"/>
<polygon fill="#c43131" stroke="black" points="273.92,-413.66 277.49,-423.64 280.92,-413.62 273.92,-413.66"/>
</g>
<!-- linodenet_util_layers -->
<g id="node31" class="node">
<title>linodenet_util_layers</title><style>.edge>path:hover{stroke-width:8}</style>
<ellipse fill="#b03a3a" stroke="black" cx="207" cy="-340.16" rx="41.94" ry="28.98"/>
<text text-anchor="middle" x="207" y="-348.66" font-family="Helvetica,sans-Serif" font-size="10.00" fill="#ffffff">linodenet.</text>
<text text-anchor="middle" x="207" y="-337.66" font-family="Helvetica,sans-Serif" font-size="10.00" fill="#ffffff">util.</text>
<text text-anchor="middle" x="207" y="-326.66" font-family="Helvetica,sans-Serif" font-size="10.00" fill="#ffffff">layers</text>
</g>
<!-- linodenet_util__util&#45;&gt;linodenet_util_layers -->
<g id="edge54" class="edge">
<title>linodenet_util__util&#45;&gt;linodenet_util_layers</title><style>.edge>path:hover{stroke-width:8}</style>
<path fill="none" stroke="black" d="M207,-267.46C207,-277.76 207,-289.62 207,-300.68"/>
<polygon fill="#c43131" stroke="black" points="203.5,-300.97 207,-310.97 210.5,-300.97 203.5,-300.97"/>
</g>
<!-- linodenet_util_layers&#45;&gt;linodenet_util -->
<g id="edge55" class="edge">
<title>linodenet_util_layers&#45;&gt;linodenet_util</title><style>.edge>path:hover{stroke-width:8}</style>
<path fill="none" stroke="black" d="M224.85,-366.59C235.55,-381.84 249.09,-401.14 259.69,-416.25"/>
<polygon fill="#b03a3a" stroke="black" points="256.94,-418.43 265.55,-424.6 262.67,-414.41 256.94,-418.43"/>
</g>
</g>
</svg>
